<svg width="16" height="16" viewBox="0 0 16 16" fill="none" xmlns="http://www.w3.org/2000/svg">
<path d="M13.9246 0.5H2.28294C1.36627 0.5 0.616272 1.25 0.616272 2.16667V13.8333C0.616272 14.75 1.36627 15.5 2.28294 15.5H13.9246C14.8413 15.5 15.5913 14.75 15.5913 13.8333V2.16667C15.5913 1.72464 15.4157 1.30072 15.1031 0.988155C14.7906 0.675595 14.3666 0.5 13.9246 0.5ZM12.5996 12.15C12.5746 12.1583 12.5413 12.1667 12.5163 12.1667H10.6329C10.5514 12.168 10.4713 12.145 10.403 12.1004C10.3346 12.0559 10.2812 11.9919 10.2496 11.9167L8.19961 7.13333C8.18294 7.08333 8.13294 7.05833 8.09127 7.075C8.07796 7.08001 8.06587 7.08781 8.05581 7.09787C8.04575 7.10793 8.03795 7.12002 8.03294 7.13333L6.75794 10.175C6.73294 10.2333 6.75794 10.2917 6.81627 10.3167C6.83294 10.325 6.84127 10.325 6.85794 10.325H8.25794C8.34127 10.325 8.4246 10.375 8.45794 10.4583L9.0746 11.825C9.13294 11.95 9.06627 12.1 8.94127 12.1583C8.89127 12.1583 8.85794 12.1667 8.82461 12.1667H3.72461C3.59961 12.1667 3.49127 12.0583 3.49127 11.9333C3.49127 11.9 3.49961 11.875 3.50794 11.8417L6.75794 4.10833C6.82461 3.94167 6.99127 3.83333 7.16627 3.83333H9.04127C9.2246 3.83333 9.38294 3.94167 9.44961 4.10833L12.7163 11.8417C12.7746 11.9583 12.7246 12.1 12.5996 12.15Z" fill="white"/>
</svg>
