<svg width="21" height="21" viewBox="0 0 21 21" fill="none" xmlns="http://www.w3.org/2000/svg">
<path d="M12.1322 19.6022L20.469 11.2654C20.6208 11.1068 20.7398 10.9198 20.8191 10.7151C20.9859 10.3092 20.9859 9.85388 20.8191 9.44794C20.7398 9.24327 20.6208 9.05628 20.469 8.89771L12.1322 0.560913C11.9767 0.405451 11.7922 0.282132 11.5891 0.197996C11.3859 0.113861 11.1682 0.0705562 10.9484 0.0705562C10.5043 0.0705562 10.0785 0.246943 9.76454 0.560913C9.45057 0.874883 9.27419 1.30072 9.27419 1.74474C9.27419 2.18876 9.45057 2.61459 9.76454 2.92856L15.2668 8.41418L2.61157 8.41418C2.16936 8.41418 1.74526 8.58984 1.43257 8.90253C1.11988 9.21523 0.944213 9.63932 0.944213 10.0815C0.944213 10.5237 1.11988 10.9478 1.43257 11.2605C1.74526 11.5732 2.16936 11.7489 2.61157 11.7489L15.2668 11.7489L9.76454 17.2345C9.60827 17.3895 9.48422 17.5739 9.39957 17.7771C9.31492 17.9803 9.27134 18.1982 9.27134 18.4183C9.27134 18.6384 9.31492 18.8564 9.39957 19.0596C9.48422 19.2627 9.60827 19.4472 9.76454 19.6022C9.91955 19.7584 10.104 19.8825 10.3071 19.9671C10.5103 20.0518 10.7283 20.0954 10.9484 20.0954C11.1685 20.0954 11.3864 20.0518 11.5896 19.9671C11.7928 19.8825 11.9772 19.7584 12.1322 19.6022Z" fill="#2A2729"/>
</svg>
