<svg width="14" height="20" viewBox="0 0 14 20" fill="none" xmlns="http://www.w3.org/2000/svg">
<path fill-rule="evenodd" clip-rule="evenodd" d="M3.38575 7.20718C3.01907 7.20718 2.65597 7.2794 2.31719 7.41973C1.97842 7.56005 1.6706 7.76573 1.41131 8.02502C1.15202 8.28431 0.946347 8.59212 0.806022 8.9309C0.665696 9.26967 0.593472 9.63277 0.593472 9.99946C0.593472 10.3661 0.665696 10.7292 0.806022 11.068C0.946347 11.4068 1.15202 11.7146 1.41131 11.9739C1.6706 12.2332 1.97842 12.4389 2.31719 12.5792C2.65597 12.7195 3.01907 12.7917 3.38575 12.7917H6.17803V10.0557C6.1776 10.0182 6.1776 9.98072 6.17803 9.94325V7.20718H3.38575ZM6.17803 5.58564H3.38575C2.64505 5.58564 1.93469 5.2914 1.41093 4.76765C0.887174 4.24389 0.592931 3.53352 0.592931 2.79282C0.592931 2.05212 0.887174 1.34175 1.41093 0.817999C1.93469 0.294243 2.64505 0 3.38575 0H6.17803V5.58564ZM7.79957 0V5.58564H10.5919C11.323 5.57126 12.0194 5.27069 12.5314 4.7485C13.0435 4.22631 13.3303 3.52415 13.3303 2.79282C13.3303 2.06149 13.0435 1.35933 12.5314 0.83714C12.0194 0.314951 11.323 0.0143862 10.5919 0H7.79957ZM10.5919 7.2061C9.85891 7.206 9.15531 7.4941 8.63292 8.00821C8.11052 8.52231 7.8112 9.22121 7.79957 9.95406V10.0438C7.80852 10.594 7.97986 11.1293 8.29206 11.5825C8.60427 12.0357 9.04343 12.3865 9.55438 12.5909C10.0653 12.7953 10.6253 12.8442 11.1639 12.7314C11.7025 12.6185 12.1958 12.3491 12.5818 11.9568C12.9678 11.5646 13.2292 11.067 13.3333 10.5266C13.4374 9.98627 13.3796 9.42718 13.167 8.9196C12.9543 8.41201 12.5965 7.97857 12.1383 7.67371C11.6802 7.36885 11.1422 7.20617 10.5919 7.2061ZM3.38575 14.4133C2.83323 14.4131 2.29306 14.5767 1.83355 14.8835C1.37404 15.1903 1.01584 15.6265 0.804253 16.1369C0.592664 16.6473 0.537191 17.209 0.644852 17.7509C0.752512 18.2929 1.01847 18.7907 1.40908 19.1815C1.7997 19.5722 2.29743 19.8384 2.83932 19.9462C3.38121 20.0541 3.94291 19.9989 4.4534 19.7875C4.96388 19.5761 5.40021 19.218 5.70719 18.7587C6.01418 18.2993 6.17803 17.7592 6.17803 17.2066V14.4133H3.38575Z" fill="white"/>
</svg>
