<svg width="26" height="26" viewBox="0 0 26 26" fill="none" xmlns="http://www.w3.org/2000/svg">
<path d="M12.8103 0.5C11.1281 0.5 9.46225 0.831349 7.90803 1.47513C6.35381 2.11891 4.94161 3.06251 3.75206 4.25206C1.34966 6.65447 0 9.91282 0 13.3103C0 18.9725 3.67657 23.7764 8.76227 25.4802C9.40279 25.5826 9.60775 25.1855 9.60775 24.8396V22.6747C6.05929 23.4433 5.30348 20.9581 5.30348 20.9581C4.7142 19.4721 3.88153 19.075 3.88153 19.075C2.71579 18.2807 3.9712 18.3064 3.9712 18.3064C5.25224 18.396 5.93119 19.6258 5.93119 19.6258C7.04569 21.573 8.9288 20.9965 9.65899 20.6891C9.77429 19.8564 10.1074 19.2928 10.466 18.9725C7.62215 18.6522 4.63734 17.5506 4.63734 12.6698C4.63734 11.2479 5.12413 10.1078 5.95681 9.19822C5.8287 8.87796 5.38034 7.54569 6.08491 5.81629C6.08491 5.81629 7.16098 5.47041 9.60775 7.12294C10.6198 6.84112 11.7215 6.7002 12.8103 6.7002C13.8992 6.7002 15.0009 6.84112 16.0129 7.12294C18.4597 5.47041 19.5358 5.81629 19.5358 5.81629C20.2403 7.54569 19.792 8.87796 19.6639 9.19822C20.4965 10.1078 20.9833 11.2479 20.9833 12.6698C20.9833 17.5634 17.9857 18.6394 15.129 18.9597C15.5902 19.3568 16.0129 20.1382 16.0129 21.3296V24.8396C16.0129 25.1855 16.2179 25.5955 16.8712 25.4802C21.9569 23.7636 25.6207 18.9725 25.6207 13.3103C25.6207 11.6281 25.2893 9.96225 24.6455 8.40803C24.0018 6.85381 23.0582 5.44161 21.8686 4.25206C20.6791 3.06251 19.2669 2.11891 17.7126 1.47513C16.1584 0.831349 14.4926 0.5 12.8103 0.5Z" fill="#2A2729"/>
</svg>
