<svg width="21" height="21" viewBox="0 0 21 21" fill="none" xmlns="http://www.w3.org/2000/svg">
<path d="M10.5816 0.333252C9.23579 0.333252 7.90314 0.598331 6.65977 1.11336C5.41639 1.62838 4.28663 2.38326 3.33499 3.3349C1.41306 5.25682 0.33334 7.86351 0.33334 10.5815C0.33334 15.1113 3.27459 18.9544 7.34316 20.3174C7.85557 20.3994 8.01954 20.0817 8.01954 19.805V18.073C5.18077 18.6879 4.57612 16.6997 4.57612 16.6997C4.1047 15.5109 3.43857 15.1932 3.43857 15.1932C2.50597 14.5579 3.5103 14.5783 3.5103 14.5783C4.53513 14.6501 5.07829 15.6339 5.07829 15.6339C5.96989 17.1917 7.47638 16.7305 8.06053 16.4845C8.15277 15.8184 8.41922 15.3675 8.70618 15.1113C6.43106 14.8551 4.04321 13.9737 4.04321 10.0691C4.04321 8.93155 4.43265 8.01945 5.09878 7.29183C4.9963 7.03562 4.63761 5.9698 5.20127 4.58628C5.20127 4.58628 6.06212 4.30958 8.01954 5.63161C8.82915 5.40615 9.71051 5.29341 10.5816 5.29341C11.4527 5.29341 12.3341 5.40615 13.1437 5.63161C15.1011 4.30958 15.9619 4.58628 15.9619 4.58628C16.5256 5.9698 16.1669 7.03562 16.0644 7.29183C16.7306 8.01945 17.12 8.93155 17.12 10.0691C17.12 13.9839 14.7219 14.8448 12.4365 15.101C12.8055 15.4187 13.1437 16.0439 13.1437 16.9969V19.805C13.1437 20.0817 13.3076 20.4096 13.8303 20.3174C17.8989 18.9441 20.8299 15.1113 20.8299 10.5815C20.8299 9.2357 20.5648 7.90306 20.0498 6.65968C19.5348 5.4163 18.7799 4.28654 17.8282 3.3349C16.8766 2.38326 15.7468 1.62838 14.5035 1.11336C13.2601 0.598331 11.9274 0.333252 10.5816 0.333252Z" fill="#F8F8F8"/>
</svg>
