<svg width="46" height="45" viewBox="0 0 46 45" fill="none" xmlns="http://www.w3.org/2000/svg">
<path d="M24.9309 0C27.4621 0.00674984 28.7468 0.0202495 29.856 0.0517488L30.2925 0.0674984C30.7965 0.0854979 31.2938 0.107997 31.8945 0.134997C34.2884 0.247494 35.9219 0.625486 37.3551 1.18122C38.8401 1.75271 40.0911 2.52669 41.342 3.77541C42.4861 4.90015 43.3714 6.26068 43.9362 7.76232C44.492 9.19554 44.8699 10.829 44.9824 13.2252C45.0094 13.8237 45.0319 14.3209 45.0499 14.8272L45.0634 15.2636C45.0972 16.3706 45.1107 17.6553 45.1152 20.1865L45.1174 21.865V24.8124C45.123 26.4535 45.1057 28.0947 45.0657 29.7353L45.0522 30.1718C45.0342 30.678 45.0117 31.1753 44.9847 31.7738C44.8722 34.17 44.4897 35.8012 43.9362 37.2366C43.373 38.7391 42.4875 40.1 41.342 41.2235C40.217 42.3672 38.8565 43.2524 37.3551 43.8177C35.9219 44.3735 34.2884 44.7515 31.8945 44.864C31.3606 44.8891 30.8266 44.9116 30.2925 44.9314L29.856 44.945C28.7468 44.9765 27.4621 44.9922 24.9309 44.9967L23.2524 44.999H20.3073C18.6654 45.0046 17.0235 44.9874 15.3821 44.9472L14.9456 44.9337C14.4115 44.9135 13.8775 44.8902 13.3437 44.864C10.9497 44.7515 9.31627 44.3735 7.8808 43.8177C6.37934 43.2538 5.01936 42.3684 3.89615 41.2235C2.75103 40.0992 1.86495 38.7386 1.29971 37.2366C0.743971 35.8034 0.36598 34.17 0.253482 31.7738C0.228415 31.2399 0.205916 30.7059 0.185984 30.1718L0.174735 29.7353C0.133273 28.0947 0.114521 26.4536 0.118486 24.8124V20.1865C0.112206 18.5454 0.128708 16.9043 0.167985 15.2636L0.183734 14.8272C0.201734 14.3209 0.224233 13.8237 0.251233 13.2252C0.36373 10.829 0.741721 9.19779 1.29746 7.76232C1.86245 6.25914 2.7503 4.89819 3.8984 3.77541C5.02133 2.63126 6.38041 1.74593 7.8808 1.18122C9.31627 0.625486 10.9475 0.247494 13.3437 0.134997C13.9422 0.107997 14.4417 0.0854979 14.9456 0.0674984L15.3821 0.0539986C17.0228 0.0140233 18.6639 -0.00322799 20.305 0.00224978L24.9309 0ZM22.618 11.2497C19.6343 11.2497 16.7729 12.435 14.6632 14.5447C12.5535 16.6544 11.3682 19.5159 11.3682 22.4995C11.3682 25.4831 12.5535 28.3445 14.6632 30.4542C16.7729 32.564 19.6343 33.7492 22.618 33.7492C25.6016 33.7492 28.463 32.564 30.5727 30.4542C32.6825 28.3445 33.8677 25.4831 33.8677 22.4995C33.8677 19.5159 32.6825 16.6544 30.5727 14.5447C28.463 12.435 25.6016 11.2497 22.618 11.2497ZM22.618 15.7496C23.5044 15.7495 24.3821 15.9239 25.2011 16.263C26.0201 16.6021 26.7643 17.0991 27.3911 17.7258C28.018 18.3525 28.5153 19.0965 28.8547 19.9154C29.194 20.7343 29.3688 21.6119 29.3689 22.4984C29.3691 23.3848 29.1946 24.2625 28.8556 25.0815C28.5165 25.9005 28.0194 26.6447 27.3927 27.2715C26.7661 27.8984 26.0221 28.3957 25.2032 28.7351C24.3843 29.0744 23.5066 29.2492 22.6202 29.2493C20.83 29.2493 19.1132 28.5382 17.8474 27.2723C16.5815 26.0065 15.8704 24.2896 15.8704 22.4995C15.8704 20.7093 16.5815 18.9925 17.8474 17.7266C19.1132 16.4608 20.83 15.7496 22.6202 15.7496M34.4324 7.87482C33.6865 7.87482 32.9712 8.17113 32.4437 8.69856C31.9163 9.22599 31.62 9.94135 31.62 10.6873C31.62 11.4332 31.9163 12.1485 32.4437 12.6759C32.9712 13.2034 33.6865 13.4997 34.4324 13.4997C35.1783 13.4997 35.8937 13.2034 36.4211 12.6759C36.9486 12.1485 37.2449 11.4332 37.2449 10.6873C37.2449 9.94135 36.9486 9.22599 36.4211 8.69856C35.8937 8.17113 35.1783 7.87482 34.4324 7.87482Z" fill="white"/>
</svg>
