<svg width="314" height="314" viewBox="0 0 314 314" fill="none" xmlns="http://www.w3.org/2000/svg">
<circle cx="157" cy="157" r="157" fill="#C77094"/>
<path d="M59.9503 175.121C43.2216 89.8296 116.261 70.5837 154.957 71.6358C255.619 69.1052 261.454 140.525 254.073 175.672C244.22 212.62 251.45 232.035 257.568 245.024C258.909 247.87 257.7 251.296 254.698 252.236C225.008 261.535 197.287 236.306 193.971 221.715L176.671 228.839C176.255 229.01 175.821 229.13 175.378 229.198L156.157 232.13C155.595 232.216 155.023 232.216 154.461 232.13L135.03 229.166C134.725 229.119 134.424 229.048 134.131 228.952L116.295 223.121C105.392 254.273 75.2537 256.157 59.4062 251.778C56.3901 250.945 55.2353 247.547 56.4511 244.663C68.3211 216.513 64.5953 187.277 60.2576 176.166C60.1255 175.828 60.0202 175.478 59.9503 175.121Z" fill="black"/>
<path fill-rule="evenodd" clip-rule="evenodd" d="M246.237 108.803C259.606 131.153 259.179 158.198 255.448 175.961L255.441 175.998L255.431 176.034C250.543 194.363 249.911 208.272 251.227 219.164C252.542 230.05 255.812 237.997 258.84 244.425C260.485 247.917 259.059 252.343 255.118 253.578C239.775 258.383 224.994 254.246 213.694 247.124C208.041 243.56 203.224 239.23 199.599 234.843C196.468 231.052 194.175 227.156 193.038 223.619L177.206 230.139C176.687 230.352 176.144 230.503 175.589 230.588L156.368 233.52C155.666 233.627 154.951 233.627 154.248 233.52L134.818 230.556C134.437 230.497 134.061 230.408 133.694 230.288L117.152 224.88C111.441 240.054 101.118 248.258 90.1702 252.1C78.977 256.028 67.1828 255.386 59.0315 253.134C54.9903 252.017 53.6994 247.57 55.1554 244.117C66.8734 216.327 63.1617 187.472 58.9477 176.677C58.7884 176.269 58.6581 175.839 58.5704 175.392C54.3487 153.867 55.7712 136.403 60.9773 122.333C66.1852 108.259 75.1444 97.6757 85.8401 89.8642C107.169 74.2869 135.426 69.705 154.958 70.2294C205.631 68.9642 232.796 86.3317 246.237 108.803ZM243.824 110.246C231.031 88.859 204.958 71.7851 154.992 73.0412L154.956 73.0421L154.919 73.0411C135.757 72.5201 108.168 77.0392 87.4984 92.1349C77.1883 99.6648 68.6057 109.82 63.6144 123.309C58.6213 136.803 57.187 153.729 61.3296 174.85C61.3818 175.117 61.462 175.386 61.567 175.655C66.0284 187.083 69.7682 216.698 57.7463 245.209C56.7707 247.523 57.7893 249.873 59.7804 250.423C67.4767 252.55 78.6754 253.154 89.239 249.447C99.7407 245.761 109.667 237.803 114.968 222.656L115.423 221.357L134.568 227.615C134.788 227.687 135.013 227.741 135.242 227.776L154.672 230.74C155.094 230.804 155.523 230.804 155.944 230.74L175.165 227.808C175.498 227.757 175.824 227.667 176.135 227.539L194.973 219.782L195.341 221.403C196.105 224.761 198.318 228.877 201.767 233.052C205.2 237.208 209.791 241.34 215.194 244.745C226.006 251.56 239.931 255.388 254.278 250.894C256.339 250.248 257.332 247.822 256.296 245.623C253.206 239.062 249.801 230.807 248.435 219.501C247.071 208.209 247.748 193.948 252.704 175.346C256.348 157.962 256.684 131.745 243.824 110.246Z" fill="black"/>
<path fill-rule="evenodd" clip-rule="evenodd" d="M156.466 69.1757C156.656 69.1195 156.858 69.0894 157.066 69.0894C207.182 69.0894 234.302 87.1774 247.477 110.72C260.546 134.071 259.589 162.267 254.714 182.065L254.701 182.12L254.685 182.173C246.958 207.624 253.137 230.292 259.235 242.677C261.337 246.945 259.657 252.979 254.351 254.211C219.659 262.262 198.644 240.004 192.781 224.994C178.748 232.053 149.699 240.23 117.535 225.019C114.948 232.083 109.628 240.798 101.019 247.192C91.3449 254.379 77.6551 258.527 59.4294 254.297C54.123 253.066 52.4432 247.032 54.5447 242.764C60.6429 230.379 66.8217 207.71 59.0957 182.26L59.0793 182.206L59.0659 182.151C54.1969 162.379 52.8758 134.179 65.7695 110.817C78.7519 87.2937 105.821 69.2345 156.466 69.1757ZM157.313 73.3072C157.123 73.3632 156.922 73.3933 156.714 73.3933C106.998 73.3933 81.5304 90.9881 69.4622 112.855C57.2955 134.9 58.4212 161.852 63.148 181.089C71.2372 207.797 64.7624 231.56 58.3286 244.627C57.1132 247.095 58.3749 249.723 60.3828 250.189C77.4303 254.145 89.8467 250.238 98.5043 243.807C107.244 237.315 112.292 228.141 114.273 221.466L114.991 219.048L117.244 220.183C150.45 236.924 180.452 227.093 192.945 220.138L195.243 218.858L195.992 221.38C199.929 234.642 219.459 257.978 253.397 250.102C255.405 249.636 256.667 247.009 255.452 244.54C249.018 231.474 242.543 207.711 250.632 181.003C255.352 161.791 256.14 134.835 243.797 112.779C231.569 90.9303 206.151 73.3662 157.313 73.3072Z" fill="black"/>
<path d="M131.408 145.094C151.653 141.438 156.246 118.967 156.012 108.189L158.751 125.651C158.799 125.959 158.873 126.267 158.977 126.561C163.912 140.544 178.46 144.746 185.184 145.094C216.432 150.585 223.497 165.905 223.179 173.387C223.164 173.741 223.162 174.094 223.19 174.448C224.787 194.764 206.306 213.221 196.783 219.958C187.785 227.831 168.665 230.502 160.229 230.853C141.953 233.665 123.325 225.698 116.295 221.363C99.1432 211.522 90.4032 190.082 88.1773 180.593C81.7101 156.692 114.303 146.968 131.408 145.094Z" fill="#FFEFEF"/>
<path d="M212.599 200.627C212.599 209.75 205.203 217.146 196.079 217.146C186.956 217.146 179.56 209.75 179.56 200.627C179.56 191.503 186.956 184.108 196.079 184.108C205.203 184.108 212.599 191.503 212.599 200.627Z" fill="#FF94C1"/>
<path d="M131.76 200.627C131.76 209.75 124.364 217.146 115.241 217.146C106.117 217.146 98.7213 209.75 98.7213 200.627C98.7213 191.503 106.117 184.107 115.241 184.107C124.364 184.107 131.76 191.503 131.76 200.627Z" fill="#FF94C1"/>
<path fill-rule="evenodd" clip-rule="evenodd" d="M155.786 106.16C155.602 106.108 155.409 106.08 155.209 106.08C154.044 106.08 153.1 107.024 153.1 108.189C153.1 118.659 150.985 126.926 146.874 132.804C142.811 138.615 136.645 142.314 128.017 143.414C117.63 144.739 108.656 148.116 101.604 151.8C88.7455 158.517 83.1945 173.01 87.6909 186.719C91.251 197.574 97.7219 209.321 108.561 218.363C119.431 227.431 134.562 233.665 155.209 233.665C176.135 233.665 191.601 227.343 202.744 218.159C213.858 208.999 220.549 197.095 224.143 186.085C228.495 172.747 222.976 158.731 210.57 152.117C203.428 148.311 194.239 144.777 183.555 143.414C174.927 142.314 168.761 138.615 164.698 132.804C160.587 126.926 158.472 118.659 158.472 108.189C158.472 107.024 157.527 106.08 156.363 106.08C156.163 106.08 155.969 106.108 155.786 106.16ZM155.786 122.567C154.642 127.382 152.841 131.631 150.33 135.221C145.502 142.126 138.205 146.366 128.551 147.598C118.75 148.848 110.255 152.039 103.557 155.538C92.597 161.263 87.82 173.58 91.6985 185.405C95.0778 195.708 101.174 206.708 111.263 215.124C121.32 223.514 135.476 229.447 155.209 229.447C175.223 229.447 189.724 223.424 200.062 214.904C210.428 206.36 216.731 195.201 220.133 184.776C223.86 173.357 219.16 161.476 208.586 155.839C201.802 152.224 193.103 148.884 183.021 147.598C173.366 146.366 166.07 142.126 161.241 135.221C158.73 131.631 156.93 127.382 155.786 122.567Z" fill="black"/>
<path d="M137.383 173.915C137.383 177.215 134.708 179.89 131.408 179.89C128.108 179.89 125.433 177.215 125.433 173.915C125.433 170.615 128.108 167.94 131.408 167.94C134.708 167.94 137.383 170.615 137.383 173.915Z" fill="black"/>
<path d="M185.184 173.915C185.184 177.215 182.509 179.89 179.209 179.89C175.909 179.89 173.234 177.215 173.234 173.915C173.234 170.615 175.909 167.94 179.209 167.94C182.509 167.94 185.184 170.615 185.184 173.915Z" fill="black"/>
<path d="M142.656 37.8945C152.497 28.0532 161.518 37.3087 164.798 43.1666C172.062 41.6435 186.59 41.128 186.59 51.2505C181.552 54.1794 170.141 56.6632 164.798 43.1666C148.771 49.0714 143.358 42.1122 142.656 37.8945Z" fill="#B4FFAD"/>
<path fill-rule="evenodd" clip-rule="evenodd" d="M154.634 36.5052C151.686 35.7601 148.536 36.4134 145.845 37.63C145.264 37.8925 144.898 38.373 144.77 38.8583C144.648 39.3197 144.738 39.7693 145.077 40.1429C147.283 42.569 150.599 43.5109 154.264 43.5046C156.923 43.5001 159.593 42.9912 161.783 42.3366C159.609 38.7409 157.057 37.1176 154.634 36.5052ZM156.038 47.6596C155.453 47.6994 154.863 47.7213 154.271 47.7223C149.987 47.7296 145.281 46.636 141.957 42.9803C139.108 39.847 140.714 35.3207 144.108 33.7867C147.317 32.3358 151.48 31.3577 155.668 32.4161C159.615 33.4137 163.262 36.1382 166.013 41.2432C179.952 39.6775 186.442 43.414 188.267 48.4221C189.442 51.6434 186.976 54.2516 184.73 55.1014C178.428 57.486 173.325 56.2892 169.586 53.597C166.82 51.606 164.885 48.8654 163.692 46.3815C159.5 48.7615 157.43 52.6961 156.587 57.0223C155.613 62.0249 156.346 67.3497 157.331 70.6876C157.66 71.8047 157.022 72.9775 155.905 73.3071C154.788 73.6367 153.615 72.9984 153.286 71.8813C152.162 68.0726 151.313 62.0448 152.447 56.2162C153.029 53.2311 154.146 50.2491 156.038 47.6596ZM167.871 45.2928C168.823 47.0433 170.219 48.856 172.05 50.1742C174.649 52.0454 178.267 53.0374 183.237 51.1567C183.691 50.9851 184.034 50.6878 184.208 50.4105C184.361 50.1659 184.355 50.0051 184.305 49.8666C183.578 47.8715 180.196 44.1824 167.871 45.2928Z" fill="black"/>
<path fill-rule="evenodd" clip-rule="evenodd" d="M128.615 160.378C126.685 160.778 125.301 161.806 124.219 162.698C123.62 163.192 122.734 163.107 122.24 162.507C121.746 161.908 121.831 161.022 122.43 160.528C123.597 159.566 125.419 158.169 128.044 157.625C130.7 157.074 133.986 157.432 138.043 159.59C138.729 159.954 138.989 160.806 138.625 161.491C138.26 162.177 137.409 162.437 136.723 162.072C133.132 160.163 130.513 159.985 128.615 160.378Z" fill="black"/>
<path fill-rule="evenodd" clip-rule="evenodd" d="M182.002 160.379C183.932 160.779 185.316 161.806 186.398 162.698C186.997 163.192 187.883 163.107 188.377 162.508C188.871 161.909 188.786 161.022 188.187 160.529C187.02 159.566 185.198 158.169 182.573 157.625C179.917 157.075 176.631 157.433 172.574 159.59C171.888 159.955 171.628 160.806 171.992 161.491C172.357 162.177 173.208 162.437 173.894 162.073C177.484 160.163 180.103 159.985 182.002 160.379Z" fill="black"/>
<path fill-rule="evenodd" clip-rule="evenodd" d="M163.211 189.039C163.593 189.715 163.354 190.573 162.678 190.955C159.206 192.918 156.183 193.374 153.639 193.069C151.12 192.767 149.193 191.732 147.891 190.926C147.231 190.518 147.027 189.651 147.435 188.991C147.844 188.331 148.711 188.127 149.371 188.535C150.529 189.253 152.046 190.046 153.974 190.277C155.876 190.505 158.301 190.199 161.295 188.507C161.971 188.125 162.829 188.363 163.211 189.039Z" fill="black"/>
</svg>
