<svg width="21" height="17" viewBox="0 0 21 17" fill="none" xmlns="http://www.w3.org/2000/svg">
<path d="M1.84668 3.79501C1.84668 3.25814 2.05995 2.74326 2.43957 2.36364C2.81919 1.98402 3.33407 1.77075 3.87094 1.77075H18.0407C18.5776 1.77075 19.0925 1.98402 19.4721 2.36364C19.8517 2.74326 20.065 3.25814 20.065 3.79501V13.9163C20.065 14.4532 19.8517 14.968 19.4721 15.3477C19.0925 15.7273 18.5776 15.9405 18.0407 15.9405H3.87094C3.33407 15.9405 2.81919 15.7273 2.43957 15.3477C2.05995 14.968 1.84668 14.4532 1.84668 13.9163V3.79501Z" stroke="#2A2729" stroke-width="1.82614" stroke-linecap="round" stroke-linejoin="round"/>
<path d="M1.84668 3.79517L10.9558 9.86794L20.065 3.79517" stroke="#2A2729" stroke-width="1.82614" stroke-linecap="round" stroke-linejoin="round"/>
</svg>
