<svg width="20" height="20" viewBox="0 0 20 20" fill="none" xmlns="http://www.w3.org/2000/svg">
<path d="M3.45835 3.5106C4.08002 4.0156 4.31335 3.97727 5.48168 3.89894L16.4942 3.2381C16.7275 3.2381 16.5333 3.00477 16.4558 2.96644L14.6258 1.64394C14.2758 1.37227 13.8083 1.06061 12.9133 1.13811L2.25085 1.91644C1.86252 1.95477 1.78419 2.14977 1.93919 2.30477L3.45835 3.5106ZM4.11918 6.07726V17.6639C4.11918 18.2864 4.43002 18.5197 5.13085 18.4806L17.2333 17.7806C17.9342 17.7422 18.0125 17.3139 18.0125 16.8081V5.29893C18.0125 4.79393 17.8183 4.52143 17.3892 4.55977L4.74168 5.29893C4.27502 5.3381 4.11918 5.57227 4.11918 6.07726ZM16.0667 6.6981C16.1442 7.0481 16.0667 7.39809 15.7167 7.43809L15.1333 7.55476V16.1081C14.6267 16.3806 14.16 16.5364 13.7708 16.5364C13.1475 16.5364 12.9917 16.3414 12.525 15.7589L8.71084 9.77059V15.5639L9.9175 15.8372C9.9175 15.8372 9.9175 16.5372 8.94417 16.5372L6.25918 16.6922C6.18168 16.5372 6.25918 16.1481 6.53168 16.0706L7.23168 15.8764V8.21559L6.26084 8.13726C6.18251 7.78726 6.37751 7.28226 6.92168 7.24309L9.80167 7.04893L13.7717 13.1147V7.74809L12.7592 7.63226C12.6817 7.20393 12.9925 6.8931 13.3817 6.85476L16.0667 6.6981ZM1.35586 0.866442L12.4475 0.0497769C13.8092 -0.0668895 14.16 0.0106103 15.0158 0.633109L18.5567 3.12144C19.14 3.54894 19.335 3.6656 19.335 4.13227V17.7806C19.335 18.6356 19.0241 19.1422 17.935 19.2189L5.05335 19.9972C4.23668 20.0364 3.84668 19.9197 3.41835 19.3747L0.810856 15.9914C0.344191 15.3689 0.150024 14.9031 0.150024 14.3581V2.22644C0.150024 1.52727 0.46169 0.943108 1.35586 0.866442Z" fill="#F8F8F8"/>
</svg>
