<svg width="21" height="20" viewBox="0 0 21 20" fill="none" xmlns="http://www.w3.org/2000/svg">
<path d="M4.5439 12.6316C4.5439 13.1899 4.3221 13.7254 3.92728 14.1202C3.53247 14.515 2.99699 14.7368 2.43864 14.7368C1.88029 14.7368 1.3448 14.515 0.949991 14.1202C0.555178 13.7254 0.333374 13.1899 0.333374 12.6316C0.333374 12.0732 0.555178 11.5377 0.949991 11.1429C1.3448 10.7481 1.88029 10.5263 2.43864 10.5263H4.5439V12.6316ZM5.59653 12.6316C5.59653 12.0732 5.81834 11.5377 6.21315 11.1429C6.60796 10.7481 7.14344 10.5263 7.7018 10.5263C8.26015 10.5263 8.79563 10.7481 9.19044 11.1429C9.58525 11.5377 9.80706 12.0732 9.80706 12.6316V17.8947C9.80706 18.4531 9.58525 18.9886 9.19044 19.3834C8.79563 19.7782 8.26015 20 7.7018 20C7.14344 20 6.60796 19.7782 6.21315 19.3834C5.81834 18.9886 5.59653 18.4531 5.59653 17.8947V12.6316ZM7.7018 4.21053C7.14344 4.21053 6.60796 3.98872 6.21315 3.59391C5.81834 3.1991 5.59653 2.66361 5.59653 2.10526C5.59653 1.54691 5.81834 1.01143 6.21315 0.616617C6.60796 0.221804 7.14344 0 7.7018 0C8.26015 0 8.79563 0.221804 9.19044 0.616617C9.58525 1.01143 9.80706 1.54691 9.80706 2.10526V4.21053H7.7018ZM7.7018 5.26316C8.26015 5.26316 8.79563 5.48496 9.19044 5.87978C9.58525 6.27459 9.80706 6.81007 9.80706 7.36842C9.80706 7.92677 9.58525 8.46225 9.19044 8.85707C8.79563 9.25188 8.26015 9.47368 7.7018 9.47368H2.43864C1.88029 9.47368 1.3448 9.25188 0.949991 8.85707C0.555178 8.46225 0.333374 7.92677 0.333374 7.36842C0.333374 6.81007 0.555178 6.27459 0.949991 5.87978C1.3448 5.48496 1.88029 5.26316 2.43864 5.26316H7.7018ZM16.1228 7.36842C16.1228 6.81007 16.3447 6.27459 16.7395 5.87978C17.1343 5.48496 17.6698 5.26316 18.2281 5.26316C18.7865 5.26316 19.3219 5.48496 19.7168 5.87978C20.1116 6.27459 20.3334 6.81007 20.3334 7.36842C20.3334 7.92677 20.1116 8.46225 19.7168 8.85707C19.3219 9.25188 18.7865 9.47368 18.2281 9.47368H16.1228V7.36842ZM15.0702 7.36842C15.0702 7.92677 14.8484 8.46225 14.4536 8.85707C14.0588 9.25188 13.5233 9.47368 12.965 9.47368C12.4066 9.47368 11.8711 9.25188 11.4763 8.85707C11.0815 8.46225 10.8597 7.92677 10.8597 7.36842V2.10526C10.8597 1.54691 11.0815 1.01143 11.4763 0.616617C11.8711 0.221804 12.4066 0 12.965 0C13.5233 0 14.0588 0.221804 14.4536 0.616617C14.8484 1.01143 15.0702 1.54691 15.0702 2.10526V7.36842ZM12.965 15.7895C13.5233 15.7895 14.0588 16.0113 14.4536 16.4061C14.8484 16.8009 15.0702 17.3364 15.0702 17.8947C15.0702 18.4531 14.8484 18.9886 14.4536 19.3834C14.0588 19.7782 13.5233 20 12.965 20C12.4066 20 11.8711 19.7782 11.4763 19.3834C11.0815 18.9886 10.8597 18.4531 10.8597 17.8947V15.7895H12.965ZM12.965 14.7368C12.4066 14.7368 11.8711 14.515 11.4763 14.1202C11.0815 13.7254 10.8597 13.1899 10.8597 12.6316C10.8597 12.0732 11.0815 11.5377 11.4763 11.1429C11.8711 10.7481 12.4066 10.5263 12.965 10.5263H18.2281C18.7865 10.5263 19.3219 10.7481 19.7168 11.1429C20.1116 11.5377 20.3334 12.0732 20.3334 12.6316C20.3334 13.1899 20.1116 13.7254 19.7168 14.1202C19.3219 14.515 18.7865 14.7368 18.2281 14.7368H12.965Z" fill="#F8F8F8"/>
</svg>
