<svg width="22" height="14" viewBox="0 0 22 14" fill="none" xmlns="http://www.w3.org/2000/svg">
<path d="M11 0.699951C8.1965 0.699951 6.4535 2.09645 5.75 4.89995C6.8 3.50345 8.0285 2.97845 9.425 3.32495C10.223 3.52445 10.8005 4.10195 11.4305 4.74245C12.4595 5.79245 13.625 6.99995 16.25 6.99995C19.0535 6.99995 20.7965 5.60345 21.5 2.79995C20.45 4.19645 19.2215 4.72145 17.825 4.37495C17.027 4.17545 16.46 3.59795 15.8195 2.95745C14.7905 1.90745 13.625 0.699951 11 0.699951ZM5.75 6.99995C2.9465 6.99995 1.2035 8.39645 0.5 11.2C1.55 9.80345 2.7785 9.27845 4.175 9.62495C4.973 9.82445 5.54 10.402 6.1805 11.0425C7.2095 12.0925 8.375 13.3 11 13.3C13.8035 13.3 15.5465 11.9035 16.25 9.09995C15.2 10.4965 13.9715 11.0215 12.575 10.675C11.777 10.4755 11.21 9.89795 10.5695 9.25745C9.5405 8.20745 8.375 6.99995 5.75 6.99995Z" fill="white"/>
</svg>
