<svg width="21" height="21" viewBox="0 0 21 21" fill="none" xmlns="http://www.w3.org/2000/svg">
<path d="M17.8333 0.333252H2.83325C2.17021 0.333252 1.53433 0.596644 1.06549 1.06549C0.596644 1.53433 0.333252 2.17021 0.333252 2.83325V17.8333C0.333252 18.4963 0.596644 19.1322 1.06549 19.601C1.53433 20.0699 2.17021 20.3333 2.83325 20.3333H17.8333C18.4963 20.3333 19.1322 20.0699 19.601 19.601C20.0699 19.1322 20.3333 18.4963 20.3333 17.8333V2.83325C20.3333 2.17021 20.0699 1.53433 19.601 1.06549C19.1322 0.596644 18.4963 0.333252 17.8333 0.333252ZM9.03325 15.5333C9.03325 15.8515 8.90682 16.1567 8.68178 16.3818C8.45674 16.6068 8.15151 16.7333 7.83325 16.7333H4.13325C3.47325 16.7333 2.93325 16.1933 2.93325 15.5333V4.13325C2.93325 3.81499 3.05968 3.50977 3.28472 3.28472C3.50977 3.05968 3.81499 2.93325 4.13325 2.93325H7.83325C8.49325 2.93325 9.03325 3.47325 9.03325 4.13325V15.5333ZM17.7333 10.5333C17.7333 11.1933 17.1933 11.7333 16.5333 11.7333H12.8333C12.1733 11.7333 11.6333 11.1933 11.6333 10.5333V4.13325C11.6333 3.47325 12.1733 2.93325 12.8333 2.93325H16.5333C17.1933 2.93325 17.7333 3.47325 17.7333 4.13325V10.5333Z" fill="#F8F8F8"/>
</svg>
