<svg width="21" height="21" viewBox="0 0 21 21" fill="none" xmlns="http://www.w3.org/2000/svg">
<path d="M19.3863 2.136L15.2483 0.144898C15.0146 0.0317838 14.7514 -0.00560636 14.4954 0.037936C14.2394 0.0814784 14.0033 0.203785 13.8201 0.387817L5.89593 7.61676L2.44481 4.99658C2.28904 4.87864 2.09695 4.81886 1.90177 4.82757C1.70658 4.83629 1.52059 4.91297 1.37596 5.04433L0.268585 6.05118C0.182291 6.12963 0.113327 6.22523 0.0661105 6.33187C0.0188937 6.4385 -0.00553619 6.55382 -0.00561504 6.67044C-0.00569389 6.78707 0.01858 6.90242 0.0656526 7.00912C0.112725 7.11582 0.181559 7.21151 0.267747 7.29007L3.26068 10.0208L0.267747 12.7516C0.181559 12.8301 0.112725 12.9258 0.0656526 13.0325C0.01858 13.1392 -0.00569389 13.2546 -0.00561504 13.3712C-0.00553619 13.4878 0.0188937 13.6031 0.0661105 13.7098C0.113327 13.8164 0.182291 13.912 0.268585 13.9905L1.3768 14.9965C1.52143 15.1278 1.70742 15.2045 1.90261 15.2132C2.09779 15.2219 2.28988 15.1622 2.44564 15.0442L5.89677 12.424L13.821 19.653C14.0041 19.8368 14.24 19.959 14.4958 20.0026C14.7516 20.0461 15.0147 20.0088 15.2483 19.8959L19.388 17.9048C19.601 17.802 19.7806 17.6412 19.9063 17.4409C20.0319 17.2405 20.0985 17.0088 20.0983 16.7723V3.2685C20.0984 3.03184 20.0315 2.79998 19.9056 2.59962C19.7796 2.39926 19.5996 2.23855 19.3863 2.136ZM15.0758 14.5843L9.0631 10.0208L15.0758 5.45729V14.5843Z" fill="#F8F8F8"/>
</svg>
