<svg width="21" height="20" viewBox="0 0 21 20" fill="none" xmlns="http://www.w3.org/2000/svg">
<path d="M10.5 0.229126C5.11623 0.229126 0.729126 4.61623 0.729126 9.99997C0.729126 15.3837 5.11623 19.7708 10.5 19.7708C15.8837 19.7708 20.2708 15.3837 20.2708 9.99997C20.2708 4.61623 15.8837 0.229126 10.5 0.229126ZM1.71598 9.99997C1.71598 8.72976 1.98956 7.51818 2.47811 6.42384L6.6698 17.9046C3.73855 16.478 1.71598 13.4784 1.71598 9.99997ZM10.5 18.784C9.64014 18.784 8.80961 18.6569 8.01818 18.4224L10.6563 10.7621L13.3531 18.1586C13.3726 18.1977 13.3921 18.2466 13.4117 18.2759C12.503 18.6081 11.5259 18.784 10.5 18.784ZM11.7116 5.87667C12.2392 5.84736 12.718 5.78874 12.718 5.78874C13.187 5.73011 13.1381 5.03638 12.6593 5.06569C12.6593 5.06569 11.2328 5.17317 10.3143 5.17317C9.45449 5.17317 7.99863 5.06569 7.99863 5.06569C7.52963 5.04615 7.47101 5.76919 7.94978 5.79851C7.94978 5.79851 8.39924 5.85713 8.86824 5.88644L10.2362 9.63845L8.3113 15.4032L5.11623 5.87667C5.64386 5.85713 6.12263 5.79851 6.12263 5.79851C6.59163 5.73988 6.54278 5.04615 6.06401 5.07546C6.06401 5.07546 4.63746 5.18294 3.719 5.18294C3.5529 5.18294 3.35748 5.18294 3.1523 5.17317C4.73517 2.78909 7.43192 1.21598 10.5 1.21598C12.7863 1.21598 14.8675 2.08559 16.4309 3.5219C16.3918 3.5219 16.3527 3.51213 16.3136 3.51213C15.4538 3.51213 14.8382 4.26448 14.8382 5.07546C14.8382 5.79851 15.2584 6.41407 15.6981 7.13711C16.0303 7.72336 16.4211 8.47572 16.4211 9.56028C16.4211 10.3126 16.128 11.1822 15.7567 12.4036L14.8773 15.3348L11.7116 5.87667ZM18.2092 5.78874C19.3066 7.79727 19.5766 10.1549 18.9616 12.3595C18.3465 14.5642 16.8951 16.4416 14.9164 17.5919L17.6034 9.83386C18.1017 8.5832 18.2678 7.5768 18.2678 6.68765C18.2678 6.36522 18.2482 6.06232 18.2092 5.78874Z" fill="white"/>
</svg>
