<svg width="20" height="20" viewBox="0 0 20 20" fill="none" xmlns="http://www.w3.org/2000/svg">
<path d="M16.9403 2.95111C16.0739 2.07599 15.042 1.38214 13.9047 0.910009C12.7674 0.437883 11.5474 0.196938 10.316 0.201228C5.15642 0.201228 0.95127 4.40638 0.95127 9.56595C0.95127 11.2197 1.38596 12.8261 2.19864 14.2436L0.875671 19.1008L5.8368 17.7967C7.20702 18.5432 8.74733 18.9401 10.316 18.9401C15.4756 18.9401 19.6807 14.735 19.6807 9.5754C19.6807 7.07121 18.7074 4.71822 16.9403 2.95111ZM10.316 17.3526C8.91743 17.3526 7.54721 16.9746 6.34709 16.2658L6.0636 16.0957L3.11527 16.8706L3.8996 13.9979L3.7106 13.705C2.93359 12.4642 2.52101 11.03 2.51993 9.56595C2.51993 5.27576 6.01635 1.77934 10.3065 1.77934C12.3855 1.77934 14.3416 2.59202 15.8063 4.06619C16.5316 4.78811 17.1063 5.64681 17.4973 6.59251C17.8882 7.53821 18.0875 8.5521 18.0837 9.5754C18.1026 13.8656 14.6062 17.3526 10.316 17.3526ZM14.5873 11.5315C14.3511 11.4181 13.1982 10.8511 12.9903 10.7661C12.7729 10.6905 12.6217 10.6527 12.4611 10.8795C12.3004 11.1157 11.8563 11.6449 11.724 11.7961C11.5917 11.9567 11.45 11.9756 11.2137 11.8528C10.9775 11.7394 10.2215 11.4843 9.33322 10.6905C8.63394 10.0668 8.1709 9.30136 8.02915 9.06512C7.89685 8.82887 8.01025 8.70603 8.1331 8.58318C8.23705 8.47923 8.36934 8.30913 8.48274 8.17684C8.59614 8.04454 8.64339 7.94059 8.71899 7.7894C8.79458 7.62875 8.75678 7.49645 8.70009 7.38306C8.64339 7.26966 8.1709 6.11679 7.9819 5.6443C7.79291 5.19071 7.59446 5.24741 7.45271 5.23796H6.99913C6.83848 5.23796 6.59278 5.29466 6.37544 5.5309C6.16755 5.76715 5.56276 6.33413 5.56276 7.487C5.56276 8.63988 6.40379 9.75495 6.51719 9.90615C6.63058 10.0668 8.1709 12.4292 10.5144 13.4404C11.072 13.6861 11.5067 13.8278 11.8469 13.9318C12.4044 14.1113 12.9147 14.0829 13.321 14.0262C13.7746 13.9601 14.7101 13.4593 14.8991 12.9112C15.0976 12.3631 15.0976 11.9 15.0314 11.7961C14.9653 11.6922 14.8235 11.6449 14.5873 11.5315Z" fill="#2A2729"/>
</svg>
